# xmcd
#
# Track frame offsets:
#	150
#	13155
#	35775
#	61857
#	74260
#	92587
#	108300
#	125310
#	144200
#	164880
#	184027
#	202225
#	220862
#
# Disc length: 3228
#
# Revision: 2
# Processed by: cddbd v1.5.1PL0 Copyright (c) Steve Scherf et al.
# Submitted via: audiograbber 1.83.01
# Normalized: r1:TDELIM( - )
#
DISCID=c00c9a0d
DTITLE=SWF3 - Bänds and Tränds
DYEAR=1996
DGENRE=POP
TTITLE0=Big Soul - Hippy Hippy Shake
TTITLE1=Fugees - Killing Me Softly
TTITLE2=Maxwell - Ascension (Don't Ever Wonder)
TTITLE3=The Presidents Of The United States Of America - Dune Buggy
TTITLE4=Dog's Eye View - Small Wonder
TTITLE5=Sophie Zelmani - You and Him
TTITLE6=Kula Shaker - Tattva
TTITLE7=Sponge - Wax Ecstatic (To Sell Angelina)
TTITLE8=Primitive Radio Gods - Standing Outside A Broken Phonebooth With Money In My Hand
TTITLE9=The Philosopher Kings - Charms
TTITLE10=Howlin´ Maggie - Alcohol
TTITLE11=Imperial Drag - Boy Or A Girl
TTITLE12=NaS - If I Ruled The World
EXTD=Compilation
EXTT0=
EXTT1=
EXTT2=
EXTT3=
EXTT4=
EXTT5=
EXTT6=
EXTT7=
EXTT8=
EXTT9=
EXTT10=
EXTT11=
EXTT12=
PLAYORDER=
